PathFileType	4	(X/Y/Z)	/Users/visionmauri/1_7_1_f_Sports2D/1_7_1_f_Sports2D_m_person00.trc
DataRate	CameraRate	NumFrames	NumMarkers	Units	OrigDataRate	OrigDataStartFrame	OrigNumFrames
30.0	30.0	11	22	m	30.0	194	389
Frame#	Time	Hip			RHip			RKnee			RAnkle			RBigToe			RSmallToe			RHeel			LHip			LKnee			LAnkle			LBigToe			LSmallToe			LHeel			Neck			Head			Nose			RShoulder			RElbow			RWrist			LShoulder			LElbow			LWrist			
		X1	Y1	Z1	X2	Y2	Z2	X3	Y3	Z3	X4	Y4	Z4	X5	Y5	Z5	X6	Y6	Z6	X7	Y7	Z7	X8	Y8	Z8	X9	Y9	Z9	X10	Y10	Z10	X11	Y11	Z11	X12	Y12	Z12	X13	Y13	Z13	X14	Y14	Z14	X15	Y15	Z15	X16	Y16	Z16	X17	Y17	Z17	X18	Y18	Z18	X19	Y19	Z19	X20	Y20	Z20	X21	Y21	Z21	X22	Y22	Z22
194	6.483333333333333	2.150048859964668	0.624188966793497	0.0301	2.101698631302582	0.6673341160090324	0.0301	1.8656588451487692	0.4853858156698839	0.129	1.69781158083016	0.23541761119894447	0.023	1.5768598129545166	0.2515648172836611	0.2179	1.5813263843660046	0.2653893365919878	0.1804	1.6935318198225562	0.1748176860425824	-0.0119	2.1932252699684285	0.5756890750005126	0.0301	1.9629200728093164	0.38385130406378865	0.129	1.7187544338739869	0.1706062981744222	0.023	1.5983732213600075	0.21763800019729515	0.2179	1.6040547765041013	0.1974090288623873	0.1804	1.6958946446904903	0.13431701031907212	-0.0119	2.433153784253862	0.964773682833422	0.0008	2.4121227624614705	1.1785723801376498	0.0655	2.3495243216783437	1.0361783296779787	0.1076	2.3554932920601157	0.9907996182565809	-0.01275	2.219428448026342	0.8515671745950757	0.0702	2.0523990357312747	0.8156052783965773	0.1076	2.5039214132423915	0.8562835422270373	-0.01275	2.3800812505557665	0.6339221660132042	0.0702	2.2058529107394738	0.5590643993578516	0.1076
195	6.516752577319587	2.150527724380814	0.631770553858053	0.0301	2.1005684645539624	0.6750670760748645	0.0301	1.8680768417971874	0.48733323338435947	0.129	1.6958117890128375	0.23473747979297524	0.023	1.5776756534139988	0.2518849407297033	0.2179	1.5831722826420704	0.26778686551644226	0.1804	1.693400339440365	0.1744089535587427	-0.0119	2.1965583301434273	0.5835743669738489	0.0301	1.9696476748846115	0.3901953927901312	0.129	1.7256218537783572	0.17628996908949812	0.023	1.6024864096081246	0.21705250666622614	0.2179	1.6112858288938585	0.20263131090768868	0.1804	1.6994900003003457	0.14077901544238833	-0.0119	2.433801655502364	0.967600109609583	0.0008	2.41576242609385	1.1812604973875933	0.0655	2.353166797348369	1.0368148195784723	0.1076	2.352373131351937	0.9984238891649881	-0.01275	2.2176073585668687	0.8593177981895196	0.0702	2.05256370382491	0.820780259547202	0.1076	2.5071793994028444	0.8601750691774102	-0.01275	2.389690191316923	0.6397269666577824	0.0702	2.2203649531147325	0.5590440000226577	0.1076
196	6.550171821305842	2.1533658445813995	0.6414217124793727	0.0301	2.1016840349450354	0.6852012774095686	0.0301	1.8726931171203316	0.4902589633521432	0.129	1.6948780403222683	0.2347033895385346	0.023	1.5790567246546834	0.25033455357611456	0.2179	1.5830763650803927	0.2682379535621579	0.1804	1.6928811725215753	0.17371922566625794	-0.0119	2.2012232712684154	0.593818325961553	0.0301	1.9741131158946035	0.40386177217611735	0.129	1.732673153543631	0.1856458402719305	0.023	1.6096152199422196	0.21575945275989508	0.2179	1.619731691845285	0.20891317678637397	0.1804	1.705344560485274	0.1506664754314174	-0.0119	2.435310761405542	0.967866754311847	0.0008	2.421262730949248	1.1817059078824035	0.0655	2.3587674940391703	1.0349692662191365	0.1076	2.3498072824953535	1.0028389419942676	-0.01275	2.2152239232296296	0.8665445073518593	0.0702	2.054284855571687	0.8284362715836282	0.1076	2.5100867530902664	0.8638801833498595	-0.01275	2.3991133646175395	0.6454281654183823	0.0702	2.242857540289833	0.5630144791076046	0.1076
197	6.583591065292096	2.1544966230506564	0.6482877279756359	0.0301	2.1017596593065617	0.6924377310030908	0.0301	1.876646935952937	0.49251441380343985	0.129	1.696415979055526	0.23607494690735703	0.023	1.580116468467417	0.24784468102190138	0.2179	1.5820073323064905	0.2674878483615676	0.1804	1.6937135604749398	0.17352976248697866	-0.0119	2.202514978821986	0.6016345905356747	0.0301	1.9721806945730802	0.41838214948221225	0.129	1.7363187331661631	0.1942507261922816	0.023	1.6182633213253628	0.2152024059183201	0.2179	1.6255624489163558	0.2125054440033806	0.1804	1.7122581385178233	0.16106666506099573	-0.0119	2.437159746844857	0.9662865071415168	0.0008	2.426817558053947	1.1792213438131927	0.0655	2.364214046235149	1.032921538029228	0.1076	2.3483519636986565	1.0049380455403498	-0.01275	2.2127716290388957	0.8707846447123933	0.0702	2.056206456815453	0.8373634593831213	0.1076	2.51326966881257	0.8661128780582557	-0.01275	2.4065649486264986	0.6475945862289354	0.0702	2.261331069005603	0.5658626200346031	0.1076
198	6.61701030927835	2.153172213763199	0.6512227066954928	0.0301	2.1003819501703327	0.6961063069669761	0.0301	1.8781642530097564	0.49494819444762295	0.129	1.6988347563653725	0.23772420665173505	0.023	1.5794208793388735	0.24527283854759832	0.2179	1.5808070373592162	0.2655219231509134	0.1804	1.6952827289027477	0.17325656143520474	-0.0119	2.200828450930819	0.605319208141935	0.0301	1.9682238156062846	0.4286545843011457	0.129	1.7373087199638724	0.19846006345990747	0.023	1.62812319882991	0.2112644680391926	0.2179	1.6282895818615952	0.21272570373304323	0.1804	1.7167062281088836	0.16578306117408462	-0.0119	2.4384333286747037	0.964615425934422	0.0008	2.43170056181539	1.177515140521662	0.0655	2.367353562033856	1.0319441967609593	0.1076	2.347487155514827	1.0067353645542865	-0.01275	2.210249097192025	0.8733377778658421	0.0702	2.0566330829525414	0.8453299646624669	0.1076	2.5163242700398105	0.8656219798002461	-0.01275	2.4118106007083777	0.6456826726568412	0.0702	2.2662160284261565	0.5630391914819487	0.1076
199	6.650429553264605	2.151241056010944	0.6530606674457686	0.0301	2.0993626592557613	0.6993789343930304	0.0301	1.878014042018062	0.49787927555440686	0.129	1.700748278846829	0.23901768772748674	0.023	1.5783944121194988	0.2431211470602617	0.2179	1.5807665574031737	0.26275222120227715	0.1804	1.695991791862556	0.17332927051006541	-0.0119	2.199798067957452	0.6073542456875605	0.0301	1.9695061113951542	0.4351237733667741	0.129	1.7380862832693	0.19804860139888822	0.023	1.636882602442148	0.201221564944608	0.2179	1.6291171644742748	0.20956558290926883	0.1804	1.716606672786921	0.16160144959052952	-0.0119	2.4385899881351154	0.964461384485675	0.0008	2.4365216968872185	1.1791789275293694	0.0655	2.368556636327539	1.0309447572445398	0.1076	2.3457927523575957	1.010195163269178	-0.01275	2.206813277532642	0.8771670300758972	0.0702	2.055661679639428	0.8512863888087765	0.1076	2.518942889134895	0.8634690621157591	-0.01275	2.4150955528331903	0.6413855131438753	0.0702	2.2594922783387577	0.5557880177967498	0.1076
200	6.683848797250859	2.1501814097964504	0.6554308811309488	0.0301	2.099374017756885	0.7033777410646472	0.0301	1.8774776626676806	0.4998426503873006	0.129	1.7027103967146349	0.24096645169041225	0.023	1.5806419963598792	0.24270845685376424	0.2179	1.5834250811229196	0.26149477655837156	0.1804	1.6956748412764024	0.17614720952854207	-0.0119	2.201207218878261	0.6096534139701693	0.0301	1.9764936973840266	0.4402475723496721	0.129	1.7390766406332905	0.1954256143729169	0.023	1.636970735932847	0.19243574054979035	0.2179	1.6288386728358424	0.20137330398627754	0.1804	1.7136526604575169	0.15291207219400765	-0.0119	2.4380618722031766	0.9653539550835349	0.0008	2.4412465818367615	1.1805393484563331	0.0655	2.3704782246023153	1.0293011253918058	0.1076	2.3436909765900378	1.015621226572646	-0.01275	2.2028690259285124	0.8831092653111006	0.0702	2.0552546808453034	0.855486325790082	0.1076	2.521804025004885	0.862200132742544	-0.01275	2.4173862221930364	0.6365721925925568	0.0702	2.250950835934324	0.5466936365209684	0.1076
201	6.717268041237113	2.150361377656673	0.6576092836676746	0.0301	2.0998734433893906	0.70679229950072	0.0301	1.8771207551317668	0.5005974967342675	0.129	1.7050364074496644	0.2437433727142804	0.023	1.5865102865651752	0.24398429902219673	0.2179	1.5884734033808205	0.26273354845765995	0.1804	1.6955023936934728	0.1817478327595868	-0.0119	2.2044730462939564	0.6121702890590115	0.0301	1.9857710394992576	0.44715263908212216	0.129	1.7394820997895855	0.19286904687466308	0.023	1.6286527845221304	0.1894719483778918	0.2179	1.6306498587443168	0.18771685289733395	0.1804	1.7116213379405842	0.14721869465756304	-0.0119	2.437931509753818	0.9643315445436209	0.0008	2.446067712251151	1.1769715724610996	0.0655	2.3745133062220454	1.0269689058502347	0.1076	2.3432802087951545	1.021196229190384	-0.01275	2.2002224449913217	0.8909139333036532	0.0702	2.055804836204559	0.8581136801088886	0.1076	2.525119456719131	0.8619271452368722	-0.01275	2.4204054573033202	0.6332401087539596	0.0702	2.2487665943143518	0.5376359580171188	0.1076
202	6.750687285223368	2.1515389697386116	0.6590968415489061	0.0301	2.1005771547804617	0.7089343724815346	0.0301	1.8774095447637151	0.5016143871278822	0.129	1.706612699779162	0.24593337747376554	0.023	1.591925099297768	0.24441094951144135	0.2179	1.592904456222501	0.26388466169264924	0.1804	1.6955627170136875	0.1863866329664288	-0.0119	2.2087416620220357	0.6144046625059197	0.0301	1.9970332459735942	0.45560377359080634	0.129	1.7398297611460796	0.19131959050301517	0.023	1.624367275027794	0.18602781571699425	0.2179	1.6377976836332337	0.17232526073235768	0.1804	1.7118017969257475	0.14766307224732628	-0.0119	2.437872674580973	0.9593823397234529	0.0008	2.4535654762674266	1.1702969796135783	0.0655	2.3806301520401116	1.0221244754390915	0.1076	2.34351958870287	1.0262165036661977	-0.01275	2.1984302874883697	0.9003319863233096	0.0702	2.0550607190970682	0.8590733790541879	0.1076	2.5282226331432756	0.8611809940668298	-0.01275	2.425780046465798	0.633181856731478	0.0702	2.255832930167512	0.5325125304310175	0.1076
203	6.784106529209621	2.1537475044967165	0.6606471282101577	0.0301	2.102022946470031	0.7109556348925582	0.0301	1.8786817097904185	0.5037490326479795	0.129	1.7070967380577902	0.24706836395964635	0.023	1.5943599688590027	0.24308103901269115	0.2179	1.594517812255992	0.26343445018918854	0.1804	1.6952104296402224	0.1882129232387529	-0.0119	2.2137633320412977	0.616077491276433	0.0301	2.0095643083914765	0.45993701167723966	0.129	1.741954364939616	0.19160100259878118	0.023	1.6306767932572177	0.17932553868942022	0.2179	1.6482391375406351	0.1596217507783768	0.1804	1.7133669105400027	0.15265323966835803	-0.0119	2.435984816731767	0.9526619798454475	0.0008	2.465574895202459	1.1643685554699208	0.0655	2.3890603410881806	1.0130818953401457	0.1076	2.339787674567664	1.0318544860787484	-0.01275	2.193982001434239	0.9093220451669107	0.0702	2.0510262366828216	0.8587833259599559	0.1076	2.5308795882447135	0.8604199076436114	-0.01275	2.4339118204789605	0.6370219084022933	0.0702	2.2705641101762954	0.5329892010123162	0.1076
204	6.817525773195876	2.157071294959298	0.6630549874739539	0.0301	2.1047646058171297	0.7143459166233067	0.0301	1.8804223168354752	0.5062931732643347	0.129	1.707534291008068	0.24822124876066032	0.023	1.5963943048192997	0.24220892959385382	0.2179	1.5949720467155226	0.263630981155401	0.1804	1.6951626996900053	0.1898621377066603	-0.0119	2.2190214264410946	0.6174644812410335	0.0301	2.019605387647289	0.457097265499789	0.129	1.7466623833415251	0.19466740352663817	0.023	1.6426154129498054	0.17374982378021941	0.2179	1.6590303689682242	0.1505590673985381	0.1804	1.7177604561620972	0.16061178016809033	-0.0119	2.4327456355118344	0.9484784741678959	0.0008	2.479563221005763	1.1581095488511686	0.0655	2.3981147558506994	1.002438134670471	0.1076	2.3315538580821924	1.038078166742836	-0.01275	2.185898358414109	0.91551000156347	0.0702	2.04446841957994	0.8585363739234153	0.1076	2.533617367595358	0.8605403214621765	-0.01275	2.4425999066700195	0.6427591495588756	0.0702	2.285093403527048	0.5334267875390178	0.1076
